# Blender v2.76 (sub 0) OBJ File: 'Turret.blend'
# www.blender.org
mtllib Turret.mtl
o Cylinder.000_Cylinder.003
v 0.000519 2.973318 0.054329
v 0.000519 3.655817 2.272757
v 0.000519 3.479063 0.054329
v 0.000519 3.479063 1.892616
v 0.438506 3.226190 0.054329
v 0.438506 3.226191 1.892616
v 0.438506 2.720446 0.054329
v 0.438506 2.720446 1.892616
v 0.000519 2.467574 0.054329
v 0.000519 2.467574 1.892616
v -0.437469 2.720446 0.054329
v -0.437469 2.720446 1.892616
v -0.437469 3.226190 0.054329
v -0.437469 3.226191 1.892616
v 0.000519 3.655817 1.892616
v 0.000519 3.469921 2.272757
v 0.591580 3.314568 1.892616
v 0.591580 2.632069 1.892616
v 0.000519 2.290820 1.892616
v -0.590543 2.632069 1.892616
v -0.590543 3.314568 1.892616
v 0.000519 3.372905 1.974982
v 0.591580 3.314568 2.272757
v 0.591580 2.632069 2.272757
v 0.000519 2.290820 2.272757
v -0.590543 2.632069 2.272757
v -0.590543 3.314568 2.272757
v 0.430589 3.221619 2.272757
v 0.430589 2.725017 2.272757
v 0.000519 2.476716 2.272757
v -0.429551 2.725017 2.272757
v -0.429551 3.221619 2.272757
v 0.346571 3.173112 1.974982
v 0.346571 2.773525 1.974982
v 0.000519 2.573732 1.974982
v -0.345533 2.773525 1.974982
v -0.345533 3.173112 1.974982
v 0.000519 3.372905 0.547592
v 0.000519 2.973318 0.547592
v 0.346571 3.173112 0.547592
v 0.346571 2.773525 0.547592
v 0.000519 2.573732 0.547592
v -0.345533 2.773525 0.547592
v -0.345533 3.173112 0.547592
v 1.000000 -0.283788 -1.000000
v 1.000000 -0.283788 1.000000
v -1.000000 -0.283788 1.000000
v -1.000000 -0.283788 -1.000000
v 1.000000 0.283787 -0.999999
v 0.999999 0.283787 1.000001
v -1.000000 0.283787 1.000000
v -1.000000 0.283787 -1.000000
v 0.629844 0.490701 -0.629843
v 0.629843 0.490701 0.629844
v -0.629844 0.490701 -0.629844
v -0.629844 0.490701 0.629844
v 0.629844 2.262089 -0.629843
v 0.629843 2.262089 0.629844
v -0.629844 2.262089 -0.629844
v -0.629844 2.262089 0.629844
v 0.868871 2.482017 -0.868870
v 0.868870 2.482018 0.868871
v -0.868870 2.482017 -0.868870
v -0.868871 2.482018 0.868870
v 1.032649 2.953313 -1.032648
v 1.032648 2.953313 1.032649
v -1.032648 2.953313 -1.032649
v -1.032649 2.953313 1.032648
v 0.916714 3.318380 -0.916714
v 0.916713 3.318380 0.916715
v -0.916714 3.318380 -0.916714
v -0.916715 3.318380 0.916714
v 0.593215 3.744924 -0.593215
v 0.593215 3.744924 0.593216
v -0.593215 3.744924 -0.593215
v -0.593215 3.744924 0.593215
v 0.593215 3.824580 -0.593215
v 0.593215 3.824580 0.593216
v -0.593215 3.824580 -0.593215
v -0.593215 3.824580 0.593215
v 1.102847 3.824580 -1.102846
v 1.102845 3.824580 1.102846
v -1.102846 3.824580 -1.102846
v -1.102846 3.824580 1.102846
v 1.102847 4.201693 -1.102846
v 1.102845 4.201693 1.102846
v -1.102846 4.201693 -1.102846
v -1.102846 4.201693 1.102846
vn 0.000000 -0.000000 -1.000000
vn 0.500000 0.866000 -0.000000
vn 1.000000 -0.000000 0.000000
vn 0.500000 -0.866000 0.000000
vn -0.500000 -0.866000 0.000000
vn -1.000000 0.000000 0.000000
vn -0.500000 0.866000 -0.000000
vn 0.000000 0.000000 1.000000
vn -0.962400 0.000000 0.271600
vn -0.481200 0.833500 0.271600
vn 0.481200 0.833500 0.271600
vn 0.962400 0.000000 0.271600
vn 0.481200 -0.833500 0.271500
vn -0.481200 -0.833500 0.271500
vn -0.000000 -1.000000 0.000000
vn -0.000000 0.872900 0.487900
vn 0.487900 0.872900 0.000000
vn -0.487900 0.872900 -0.000000
vn 0.000000 0.872900 -0.487900
vn 0.000000 1.000000 0.000000
vn -0.677100 -0.735900 0.000000
vn -0.000000 -0.328300 0.944600
vn 0.000000 -0.735900 -0.677100
vn -0.000000 -0.735900 0.677100
vn 0.677100 -0.735900 0.000000
vn -0.953100 0.302700 -0.000000
vn 0.944600 -0.328300 0.000000
vn -0.944600 -0.328300 -0.000000
vn 0.000000 -0.328300 -0.944600
vn 0.000000 0.604300 -0.796800
vn 0.000000 0.302700 -0.953100
vn -0.000000 0.302700 0.953100
vn 0.953100 0.302700 0.000000
vn -0.000000 0.604300 0.796800
vn 0.796800 0.604300 0.000000
vn -0.796800 0.604300 -0.000000
usemtl Cano
s off
f 1//1 3//1 5//1
f 10//1 8//1 18//1 19//1
f 3//2 4//2 6//2 5//2
f 1//1 5//1 7//1
f 6//1 4//1 15//1 17//1
f 5//3 6//3 8//3 7//3
f 1//1 7//1 9//1
f 4//1 14//1 21//1 15//1
f 7//4 8//4 10//4 9//4
f 1//1 9//1 11//1
f 8//1 6//1 17//1 18//1
f 9//5 10//5 12//5 11//5
f 1//1 11//1 13//1
f 14//1 12//1 20//1 21//1
f 11//6 12//6 14//6 13//6
f 1//1 13//1 3//1
f 12//1 10//1 19//1 20//1
f 13//7 14//7 4//7 3//7
f 19//4 18//4 24//4 25//4
f 20//5 19//5 25//5 26//5
f 21//6 20//6 26//6 27//6
f 15//7 21//7 27//7 2//7
f 17//2 15//2 2//2 23//2
f 18//3 17//3 23//3 24//3
f 2//8 27//8 32//8 16//8
f 23//8 2//8 16//8 28//8
f 24//8 23//8 28//8 29//8
f 25//8 24//8 29//8 30//8
f 26//8 25//8 30//8 31//8
f 27//8 26//8 31//8 32//8
f 29//9 28//9 33//9 34//9
f 30//10 29//10 34//10 35//10
f 31//11 30//11 35//11 36//11
f 32//12 31//12 36//12 37//12
f 16//13 32//13 37//13 22//13
f 28//14 16//14 22//14 33//14
f 22//4 37//4 44//4 38//4
f 33//5 22//5 38//5 40//5
f 34//6 33//6 40//6 41//6
f 35//7 34//7 41//7 42//7
f 36//2 35//2 42//2 43//2
f 37//3 36//3 43//3 44//3
usemtl Canopreto
f 39//8 40//8 38//8
f 39//8 41//8 40//8
f 39//8 42//8 41//8
f 39//8 43//8 42//8
f 39//8 44//8 43//8
f 39//8 38//8 44//8
usemtl Turret
f 45//15 46//15 47//15 48//15
f 51//16 50//16 54//16 56//16
f 45//3 49//3 50//3 46//3
f 46//8 50//8 51//8 47//8
f 47//6 51//6 52//6 48//6
f 49//1 45//1 48//1 52//1
f 54//3 53//3 57//3 58//3
f 50//17 49//17 53//17 54//17
f 52//18 51//18 56//18 55//18
f 49//19 52//19 55//19 53//19
f 55//6 56//6 60//6 59//6
f 53//1 55//1 59//1 57//1
f 56//8 54//8 58//8 60//8
f 76//8 74//8 78//8 80//8
f 79//15 80//15 84//15 83//15
f 74//3 73//3 77//3 78//3
f 75//6 76//6 80//6 79//6
f 73//1 75//1 79//1 77//1
f 84//8 82//8 86//8 88//8
f 77//15 79//15 83//15 81//15
f 80//15 78//15 82//15 84//15
f 78//15 77//15 81//15 82//15
f 85//20 87//20 88//20 86//20
f 82//3 81//3 85//3 86//3
f 83//6 84//6 88//6 87//6
f 81//1 83//1 87//1 85//1
usemtl Material
f 59//21 60//21 64//21 63//21
f 64//22 62//22 66//22 68//22
f 57//23 59//23 63//23 61//23
f 60//24 58//24 62//24 64//24
f 58//25 57//25 61//25 62//25
f 67//26 68//26 72//26 71//26
f 62//27 61//27 65//27 66//27
f 63//28 64//28 68//28 67//28
f 61//29 63//29 67//29 65//29
f 69//30 71//30 75//30 73//30
f 65//31 67//31 71//31 69//31
f 68//32 66//32 70//32 72//32
f 66//33 65//33 69//33 70//33
f 72//34 70//34 74//34 76//34
f 70//35 69//35 73//35 74//35
f 71//36 72//36 76//36 75//36
